<svg width="14" height="25" viewBox="0 0 14 25" fill="none" xmlns="http://www.w3.org/2000/svg">
<path d="M12.6688 12.7054C12.6695 13.0948 12.5339 13.4722 12.2854 13.7721L3.95209 23.7721C3.66919 24.1124 3.26267 24.3265 2.82196 24.3671C2.38125 24.4078 1.94245 24.2717 1.60209 23.9888C1.26173 23.7059 1.04769 23.2993 1.00705 22.8586C0.96642 22.4179 1.10252 21.9791 1.38542 21.6388L8.85209 12.7054L1.65209 3.77208C1.51364 3.6016 1.41026 3.40544 1.34787 3.19488C1.28548 2.98431 1.26533 2.7635 1.28856 2.54511C1.31179 2.32673 1.37795 2.1151 1.48324 1.92237C1.58853 1.72964 1.73087 1.55962 1.90209 1.42208C2.07345 1.26945 2.2745 1.15385 2.49262 1.08253C2.71074 1.01121 2.94125 0.985705 3.16968 1.00761C3.39812 1.02952 3.61958 1.09836 3.82017 1.20983C4.02077 1.3213 4.19618 1.473 4.33542 1.65542L12.3854 11.6554C12.5946 11.9639 12.6944 12.3336 12.6688 12.7054Z" fill="#363431" stroke="white"/>
</svg>
