<svg width="14" height="25" viewBox="0 0 14 25" fill="none" xmlns="http://www.w3.org/2000/svg">
<path d="M1.00394 12.7054C1.00318 13.0948 1.13881 13.4722 1.38728 13.7721L9.72061 23.7721C10.0035 24.1124 10.41 24.3265 10.8507 24.3671C11.2914 24.4078 11.7302 24.2717 12.0706 23.9888C12.411 23.7059 12.625 23.2993 12.6656 22.8586C12.7063 22.4179 12.5702 21.9791 12.2873 21.6388L4.82061 12.7054L12.0206 3.77208C12.1591 3.6016 12.2624 3.40544 12.3248 3.19488C12.3872 2.98431 12.4074 2.7635 12.3841 2.54511C12.3609 2.32673 12.2947 2.1151 12.1895 1.92237C12.0842 1.72964 11.9418 1.55962 11.7706 1.42208C11.5992 1.26945 11.3982 1.15385 11.1801 1.08253C10.962 1.01121 10.7315 0.985705 10.503 1.00761C10.2746 1.02952 10.0531 1.09836 9.85252 1.20983C9.65193 1.3213 9.47652 1.473 9.33728 1.65542L1.28728 11.6554C1.07808 11.9639 0.978325 12.3336 1.00394 12.7054Z" fill="#363431" stroke="white"/>
</svg>
