<svg width="40" height="40" viewBox="0 0 40 40" fill="none" xmlns="http://www.w3.org/2000/svg">
<circle cx="20" cy="20" r="20" fill="#F3F3F3"/>
<path d="M27.7942 18.54C27.8967 19.0892 27.9525 19.6633 27.9525 20.2625C27.9525 24.9492 24.8158 28.2817 20.0783 28.2817C19.001 28.282 17.9341 28.07 16.9387 27.6579C15.9432 27.2458 15.0388 26.6415 14.277 25.8797C13.5152 25.1179 12.9109 24.2134 12.4988 23.218C12.0866 22.2226 11.8747 21.1557 11.875 20.0783C11.8747 19.001 12.0866 17.9341 12.4988 16.9387C12.9109 15.9432 13.5152 15.0388 14.277 14.277C15.0388 13.5152 15.9432 12.9109 16.9387 12.4988C17.9341 12.0866 19.001 11.8747 20.0783 11.875C22.2933 11.875 24.1442 12.69 25.5642 14.0133L23.2517 16.3258V16.32C22.3908 15.5 21.2983 15.0792 20.0783 15.0792C17.3717 15.0792 15.1717 17.3658 15.1717 20.0733C15.1717 22.78 17.3717 25.0717 20.0783 25.0717C22.5342 25.0717 24.2058 23.6675 24.5492 21.7392H20.0783V18.54H27.795H27.7942Z" fill="white"/>
</svg>
