<svg width="40" height="40" viewBox="0 0 40 40" fill="none" xmlns="http://www.w3.org/2000/svg">
<path d="M11.032 35.7477L11.7143 36.085C14.5578 37.7712 17.7422 38.5581 20.9268 38.5581C30.9352 38.5581 39.1239 30.4643 39.1239 20.5718C39.1239 15.8504 37.1903 11.2414 33.7785 7.86891C30.3665 4.49642 25.8171 2.58545 20.9268 2.58545C10.9183 2.58545 2.72947 10.6793 2.84327 20.6843C2.84327 24.0566 3.86686 27.3168 5.57279 30.127L6.02768 30.8016L4.20811 37.4341L11.032 35.7477Z" fill="#F3F3F3"/>
<g filter="url(#filter0_d_130_2501)">
<path d="M34.3438 5.83783C30.625 2.05412 25.4844 0 20.2344 0C9.07825 0 0.109444 8.97294 0.218732 19.8918C0.218732 23.3513 1.20311 26.7028 2.84383 29.7297L0 40L10.6094 37.2973C13.5625 38.919 16.8436 39.6758 20.1251 39.6758C31.1719 39.6758 40.1407 30.7027 40.1407 19.784C40.1407 14.4865 38.0625 9.51351 34.3439 5.83783H34.3438ZM20.2344 36.3245C17.2813 36.3245 14.3281 35.5678 11.8125 34.0543L11.1563 33.7299L4.81258 35.3515L6.45315 29.1894L6.01568 28.5407C1.20311 20.8651 3.50003 10.7027 11.375 5.94585C19.25 1.18917 29.4219 3.45949 34.2345 11.2433C39.0469 19.027 36.75 29.0811 28.8752 33.838C26.3593 35.4595 23.2969 36.3243 20.2344 36.3243V36.3245ZM29.8594 24.3246L28.6563 23.784C28.6563 23.784 26.9064 23.0272 25.8126 22.4867C25.7031 22.4867 25.5939 22.3785 25.4844 22.3785C25.1562 22.3785 24.9375 22.4867 24.7188 22.5948C24.7188 22.5948 24.6095 22.7029 23.0782 24.4326C22.9688 24.6488 22.75 24.757 22.5313 24.757H22.4219C22.3126 24.757 22.0938 24.6488 21.9844 24.5408L21.4375 24.3246C20.2344 23.784 19.1407 23.1353 18.2656 22.2705C18.0469 22.0543 17.7187 21.8381 17.5 21.6219C16.7343 20.8651 15.9687 20.0002 15.422 19.0272L15.3125 18.811C15.2032 18.7028 15.2032 18.5948 15.0938 18.3786C15.0938 18.1624 15.0938 17.9462 15.2032 17.838C15.2032 17.838 15.6407 17.2974 15.9687 16.9732C16.1876 16.7569 16.2969 16.4326 16.5156 16.2164C16.7343 15.8921 16.8438 15.4597 16.7343 15.1353C16.6251 14.5947 15.3125 11.6758 14.9845 11.0272C14.7656 10.7028 14.547 10.5948 14.2188 10.4866H13.0157C12.7969 10.4866 12.5783 10.5948 12.3594 10.5948L12.2499 10.7028C12.0312 10.811 11.8125 11.0272 11.5937 11.1352C11.375 11.3516 11.2656 11.5676 11.0468 11.784C10.2812 12.757 9.84373 13.9461 9.84373 15.1353C9.84373 16.0001 10.0625 16.865 10.3906 17.6218L10.5001 17.9462C11.4845 20.0002 12.7969 21.8381 14.547 23.4596L14.9845 23.892C15.3125 24.2164 15.6407 24.4326 15.8594 24.7568C18.1563 26.7029 20.7813 28.1083 23.7344 28.8651C24.0626 28.9731 24.5 28.9731 24.8282 29.0813H25.9219C26.4688 29.0813 27.125 28.8651 27.5626 28.6489C27.8906 28.4327 28.1094 28.4327 28.3281 28.2165L28.547 28.0001C28.7657 27.7839 28.9844 27.6759 29.2032 27.4597C29.4219 27.2435 29.6406 27.0273 29.7501 26.811C29.9688 26.3786 30.0781 25.838 30.1876 25.2976V24.5408C30.1876 24.5408 30.0781 24.4326 29.8594 24.3246Z" fill="white"/>
</g>
<defs>
<filter id="filter0_d_130_2501" x="-1" y="-1" width="42.1407" height="42" filterUnits="userSpaceOnUse" color-interpolation-filters="sRGB">
<feFlood flood-opacity="0" result="BackgroundImageFix"/>
<feColorMatrix in="SourceAlpha" type="matrix" values="0 0 0 0 0 0 0 0 0 0 0 0 0 0 0 0 0 0 127 0" result="hardAlpha"/>
<feOffset/>
<feGaussianBlur stdDeviation="0.5"/>
<feComposite in2="hardAlpha" operator="out"/>
<feColorMatrix type="matrix" values="0 0 0 0 0 0 0 0 0 0 0 0 0 0 0 0 0 0 0.1 0"/>
<feBlend mode="normal" in2="BackgroundImageFix" result="effect1_dropShadow_130_2501"/>
<feBlend mode="normal" in="SourceGraphic" in2="effect1_dropShadow_130_2501" result="shape"/>
</filter>
</defs>
</svg>
