<svg width="156" height="57" viewBox="0 0 156 57" fill="none" xmlns="http://www.w3.org/2000/svg">
<path d="M3.07715 12.2752H10.0872C11.2378 12.2752 12.1318 12.346 12.7691 12.4876C13.424 12.6292 14.0082 12.9036 14.5216 13.3107C15.7961 14.2666 16.4334 15.5501 16.4334 17.1609C16.4334 18.9843 15.6014 20.2765 13.9374 21.0377C14.9464 21.3209 15.7519 21.8963 16.3537 22.7637C16.9556 23.6311 17.2566 24.6489 17.2566 25.8173C17.2566 27.7114 16.5573 29.1895 15.1589 30.2517C14.6632 30.6234 14.0613 30.8889 13.3532 31.0483C12.6451 31.2076 11.6184 31.2872 10.2731 31.2872H3.07715V12.2752ZM5.73247 14.6649V20.188H10.22C11.3883 20.188 12.2469 19.9756 12.7956 19.5507C13.3621 19.1082 13.6453 18.4443 13.6453 17.5592C13.6453 16.5325 13.3621 15.7979 12.7956 15.3553C12.2469 14.8951 11.3086 14.6649 9.98098 14.6649H5.73247ZM5.73247 22.5778V28.8975H10.0341C11.3794 28.8975 12.4504 28.685 13.247 28.2602C14.0613 27.8176 14.4685 26.9856 14.4685 25.7642C14.4685 23.6399 13.07 22.5778 10.2731 22.5778H5.73247Z" fill="#363431"/>
<path d="M20.4377 21.9671C20.4377 19.9313 20.8095 18.1523 21.553 16.6299C22.3142 15.1075 23.4029 13.9392 24.819 13.1249C26.2352 12.3106 27.8726 11.9034 29.7314 11.9034C31.1298 11.9034 32.3867 12.1335 33.5019 12.5938C34.6349 13.0363 35.5996 13.6825 36.3962 14.5322C37.1928 15.3819 37.8035 16.3909 38.2284 17.5592C38.6532 18.7276 38.8657 20.0818 38.8657 21.6219C38.8657 23.4806 38.5028 25.18 37.777 26.7201C37.0689 28.2425 36.0068 29.4462 34.5906 30.3313C33.1921 31.1987 31.5193 31.6324 29.572 31.6324C27.6779 31.6324 26.0493 31.243 24.6863 30.4641C23.3232 29.6852 22.2699 28.5611 21.5264 27.0918C20.8006 25.6049 20.4377 23.8966 20.4377 21.9671ZM23.2258 21.914C23.2258 24.1444 23.8012 25.9235 24.9518 27.2512C26.1024 28.5788 27.6779 29.2426 29.6783 29.2426C31.6963 29.2426 33.2718 28.57 34.4047 27.2246C35.5554 25.8615 36.1307 23.994 36.1307 21.6219C36.1307 20.8784 36.0687 20.188 35.9448 19.5507C35.8209 18.8958 35.6262 18.285 35.3606 17.7186C34.8296 16.6033 34.0684 15.7536 33.0771 15.1695C32.1035 14.5853 30.9705 14.2932 29.6783 14.2932C27.6425 14.2932 26.0582 14.9747 24.9252 16.3378C23.7923 17.7009 23.2258 19.5596 23.2258 21.914Z" fill="#363431"/>
<path d="M43.5148 12.2752H49.9406C51.5338 12.2752 52.7376 12.3637 53.5519 12.5407C54.3839 12.7177 55.1451 13.0895 55.8354 13.6559C56.8445 14.4348 57.6411 15.5146 58.2252 16.8954C58.8094 18.2762 59.1015 19.8517 59.1015 21.6219C59.1015 23.0912 58.8802 24.4808 58.4376 25.7907C57.9951 27.1007 57.3755 28.1894 56.5789 29.0568C55.8 29.9065 54.9238 30.4906 53.9502 30.8093C52.9942 31.1279 51.7197 31.2872 50.1265 31.2872H43.5148V12.2752ZM46.1701 14.6649V28.8975H49.9672C51.7728 28.8975 53.0651 28.6231 53.8439 28.0743C55.5257 26.8529 56.3665 24.6843 56.3665 21.5688C56.3665 20.1349 56.1629 18.9135 55.7558 17.9044C55.3486 16.8777 54.7556 16.0988 53.9767 15.5678C53.0739 14.9659 51.7108 14.6649 49.8875 14.6649H46.1701Z" fill="#363431"/>
<path d="M61.087 12.2752H64.2202L69.8761 21.2767L75.346 12.2752H78.4793L71.2037 23.7727V31.2872H68.5218V23.7727L61.087 12.2752Z" fill="#363431"/>
<path d="M88.7228 12.2752H103.964V14.6649H97.6712V31.2872H94.9628V14.6649H88.7228V12.2752Z" fill="#363431"/>
<path d="M107.872 12.2752H110.527V31.2872H107.872V12.2752Z" fill="#363431"/>
<path d="M116.448 12.2752H120.218L125.051 28.154L129.857 12.2752H133.601V31.2872H130.919V16.0457L126.219 31.2872H123.75L119.103 15.9926V31.2872H116.448V12.2752Z" fill="#363431"/>
<path d="M139.571 12.2752H153.219V14.6649H142.226V20.2411H152.396V22.6309H142.226V28.8975H153.352V31.2872H139.571V12.2752Z" fill="#363431"/>
<path d="M3.03418 49.0513H8.15231V49.9475H4.02992V52.0385H7.84363V52.9347H4.02992V55.2847H8.2021V56.1808H3.03418V49.0513Z" fill="#363431"/>
<path d="M21.4933 49.0513H22.5389L25.088 56.1808H24.0026L23.2956 54.0599H20.5573L19.8105 56.1808H18.7451L21.4933 49.0513ZM21.9713 50.1367L20.8859 53.2533H23.0168L21.9713 50.1367Z" fill="#363431"/>
<path d="M35.5513 53.801H36.5968C36.5968 54.1528 36.6334 54.4217 36.7064 54.6076C36.7528 54.7735 36.8889 54.9328 37.1146 55.0855C37.4665 55.3046 37.9179 55.4141 38.4688 55.4141C38.8008 55.4141 39.1028 55.3676 39.375 55.2747C39.6471 55.1818 39.8496 55.049 39.9824 54.8764C40.1218 54.7038 40.1915 54.508 40.1915 54.2889C40.1915 53.9304 39.9027 53.645 39.3252 53.4326L37.1644 52.626C36.2749 52.3074 35.8301 51.7564 35.8301 50.9731C35.8301 50.6279 35.8998 50.3292 36.0392 50.0769C36.1786 49.818 36.3811 49.5956 36.6466 49.4098C36.8657 49.2571 37.1379 49.131 37.4631 49.0314C37.7619 48.9517 38.0672 48.9119 38.3792 48.9119C39.4347 48.9119 40.1915 49.2339 40.6495 49.8778C40.7557 50.0304 40.8354 50.213 40.8885 50.4254C40.9482 50.6379 40.9781 50.9001 40.9781 51.2121H39.9326C39.9326 50.847 39.8795 50.5748 39.7733 50.3956C39.6671 50.2362 39.4812 50.1002 39.2157 49.9873C38.9501 49.8678 38.6647 49.8081 38.3593 49.8081C37.9079 49.8081 37.5428 49.9143 37.264 50.1267C36.9918 50.3325 36.8557 50.5847 36.8557 50.8835C36.8557 51.0959 36.9088 51.2619 37.0151 51.3813C37.1213 51.4942 37.3171 51.6037 37.6025 51.7099L39.8828 52.5563C40.7856 52.8882 41.237 53.4293 41.237 54.1794C41.237 54.5113 41.1507 54.8266 40.9781 55.1253C40.8122 55.4241 40.5798 55.673 40.2811 55.8722C39.8629 56.1642 39.2455 56.3103 38.429 56.3103C37.4997 56.3103 36.786 56.1144 36.2882 55.7228C35.7969 55.3311 35.5513 54.7702 35.5513 54.04V53.801Z" fill="#363431"/>
<path d="M51.6107 49.0513H52.7857L54.9066 52.4269L56.9579 49.0513H58.1329L55.4045 53.3629V56.1808H54.3988V53.3629L51.6107 49.0513Z" fill="#363431"/>
<path d="M81.1821 53.801H82.2276C82.2276 54.1528 82.2641 54.4217 82.3372 54.6076C82.3836 54.7735 82.5197 54.9328 82.7454 55.0855C83.0972 55.3046 83.5486 55.4141 84.0996 55.4141C84.4315 55.4141 84.7336 55.3676 85.0058 55.2747C85.2779 55.1818 85.4804 55.049 85.6132 54.8764C85.7526 54.7038 85.8223 54.508 85.8223 54.2889C85.8223 53.9304 85.5335 53.645 84.956 53.4326L82.7952 52.626C81.9057 52.3074 81.4609 51.7564 81.4609 50.9731C81.4609 50.6279 81.5306 50.3292 81.67 50.0769C81.8094 49.818 82.0119 49.5956 82.2774 49.4098C82.4965 49.2571 82.7686 49.131 83.0939 49.0314C83.3926 48.9517 83.698 48.9119 84.01 48.9119C85.0655 48.9119 85.8223 49.2339 86.2803 49.8778C86.3865 50.0304 86.4662 50.213 86.5193 50.4254C86.579 50.6379 86.6089 50.9001 86.6089 51.2121H85.5634C85.5634 50.847 85.5103 50.5748 85.4041 50.3956C85.2978 50.2362 85.112 50.1002 84.8464 49.9873C84.5809 49.8678 84.2955 49.8081 83.9901 49.8081C83.5387 49.8081 83.1736 49.9143 82.8948 50.1267C82.6226 50.3325 82.4865 50.5847 82.4865 50.8835C82.4865 51.0959 82.5396 51.2619 82.6458 51.3813C82.7521 51.4942 82.9479 51.6037 83.2333 51.7099L85.5136 52.5563C86.4164 52.8882 86.8678 53.4293 86.8678 54.1794C86.8678 54.5113 86.7815 54.8266 86.6089 55.1253C86.4429 55.4241 86.2106 55.673 85.9119 55.8722C85.4937 56.1642 84.8763 56.3103 84.0598 56.3103C83.1304 56.3103 82.4168 56.1144 81.9189 55.7228C81.4277 55.3311 81.1821 54.7702 81.1821 54.04V53.801Z" fill="#363431"/>
<path d="M98.0978 49.0513H99.0936V51.9887H102.459V49.0513H103.455V56.1808H102.459V52.8849H99.0936V56.1808H98.0978V49.0513Z" fill="#363431"/>
<path d="M116.985 49.0513H118.03L120.58 56.1808H119.494L118.787 54.0599H116.049L115.302 56.1808H114.237L116.985 49.0513ZM117.463 50.1367L116.377 53.2533H118.508L117.463 50.1367Z" fill="#363431"/>
<path d="M131.481 49.0513H134.219C134.684 49.0513 135.059 49.0779 135.344 49.131C135.603 49.1907 135.826 49.2936 136.012 49.4396C136.536 49.818 136.798 50.3657 136.798 51.0826C136.798 51.5473 136.689 51.9556 136.47 52.3074C136.257 52.6526 135.952 52.8982 135.554 53.0442C135.295 53.1438 134.896 53.1936 134.359 53.1936H132.477V56.1808H131.481V49.0513ZM132.477 52.2974H134.03C134.588 52.2974 135.013 52.2244 135.305 52.0784C135.603 51.9257 135.753 51.607 135.753 51.1224C135.753 50.6777 135.617 50.3723 135.344 50.2064C135.072 50.0338 134.691 49.9475 134.199 49.9475H132.477V52.2974Z" fill="#363431"/>
<path d="M147.959 49.0513H153.077V49.9475H148.954V52.0385H152.768V52.9347H148.954V55.2847H153.127V56.1808H147.959V49.0513Z" fill="#363431"/>
<path d="M0 40.8298H156" stroke="#363431"/>
<path d="M0 1H156" stroke="#363431"/>
</svg>
