<svg width="99" height="89" viewBox="0 0 99 89" fill="none" xmlns="http://www.w3.org/2000/svg">
<path d="M47.4029 44.0995C48.5573 45.3135 50.4374 45.3135 51.6084 44.0995L69.5683 25.3643C74.7798 19.9177 74.483 10.8946 68.6448 5.87451C63.5652 1.49422 55.9953 2.28169 51.3445 7.13774L49.4974 9.05719L47.6667 7.15414C43.016 2.28169 35.4461 1.49422 30.3665 5.87451C24.5448 10.8946 24.2314 19.9177 29.4429 25.3643L47.4029 44.0995ZM95.2301 56.8302C93.284 55.0748 90.2495 55.1896 88.2044 56.8302L72.9657 68.9539C71.1021 70.4468 68.7767 71.2507 66.3688 71.2507H46.8586C45.4073 71.2507 44.2199 70.0695 44.2199 68.6258C44.2199 67.1821 45.4073 66.0009 46.8586 66.0009H59.772C62.3942 66.0009 64.8351 64.2127 65.2639 61.637C65.8081 58.3559 63.2683 55.5013 60.0523 55.5013H33.6649C29.212 55.5013 24.9076 57.027 21.4442 59.816L13.7754 66.0009H4.63874C3.18743 66.0009 2 67.1821 2 68.6258V84.3751C2 85.8188 3.18743 87 4.63874 87H63.4827C65.8741 87 68.1995 86.1961 70.0796 84.7032L95.0157 64.8525C97.5225 62.8674 97.7204 59.0613 95.2301 56.8302Z" stroke="#C7DF9E" stroke-width="4"/>
</svg>
