<svg width="40" height="40" viewBox="0 0 40 40" fill="none" xmlns="http://www.w3.org/2000/svg">
<circle cx="20" cy="20" r="20" fill="#F3F3F3"/>
<path fill-rule="evenodd" clip-rule="evenodd" d="M29.5417 14.9567C29.68 14.5017 29.5417 14.1667 28.8792 14.1667H26.6917C26.135 14.1667 25.8783 14.4559 25.7392 14.7751C25.7392 14.7751 24.6267 17.4384 23.0508 19.1684C22.5408 19.6701 22.3092 19.8292 22.0308 19.8292C21.8917 19.8292 21.6825 19.6701 21.6825 19.2142V14.9567C21.6825 14.4101 21.5292 14.1667 21.0658 14.1667H17.6258C17.2783 14.1667 17.0692 14.4201 17.0692 14.6609C17.0692 15.1784 17.8575 15.2984 17.9383 16.7551V19.9201C17.9383 20.6143 17.8108 20.7401 17.5325 20.7401C16.7908 20.7401 14.9867 18.0642 13.9158 15.0026C13.7083 14.4067 13.4983 14.1667 12.9392 14.1667H10.75C10.125 14.1667 10 14.4559 10 14.7751C10 15.3434 10.7417 18.1667 13.4542 21.9009C15.2625 24.4509 17.8083 25.8334 20.1275 25.8334C21.5183 25.8334 21.69 25.5268 21.69 24.9976V23.0701C21.69 22.4559 21.8217 22.3334 22.2625 22.3334C22.5875 22.3334 23.1433 22.4934 24.4417 23.7226C25.925 25.1801 26.1692 25.8334 27.0042 25.8334H29.1917C29.8167 25.8334 30.13 25.5268 29.95 24.9201C29.7517 24.3168 29.0433 23.4409 28.1042 22.4018C27.5942 21.8101 26.8292 21.1726 26.5967 20.8534C26.2725 20.4442 26.365 20.2617 26.5967 19.8976C26.5967 19.8976 29.2633 16.2092 29.5408 14.9567H29.5417Z" fill="white"/>
</svg>
